<?xml version="1.0" standalone="no"?>
<!DOCTYPE svg PUBLIC "-//W3C//DTD SVG 20010904//EN"
 "http://www.w3.org/TR/2001/REC-SVG-20010904/DTD/svg10.dtd">
<svg version="1.0" xmlns="http://www.w3.org/2000/svg"
 width="512.000000pt" height="512.000000pt" viewBox="0 0 512.000000 512.000000"
 preserveAspectRatio="xMidYMid meet">
<metadata>
Created by potrace 1.14, written by Peter Selinger 2001-2017
</metadata>
<g transform="translate(0.000000,512.000000) scale(0.100000,-0.100000)"
fill="#000000" stroke="none">
<path d="M1718 4655 c-180 -47 -353 -272 -446 -580 -30 -98 -34 -115 -52 -225
-21 -132 7 -298 67 -392 12 -21 23 -41 23 -45 0 -15 115 -129 163 -162 208
-142 493 -135 697 17 159 119 250 318 236 517 -7 109 -54 306 -94 400 -161
373 -360 531 -594 470z"/>
<path d="M3193 4645 c-102 -37 -190 -114 -268 -235 -148 -228 -241 -574 -206
-765 67 -369 445 -586 800 -461 168 60 321 229 372 411 42 151 -12 460 -118
679 -154 316 -364 450 -580 371z"/>
<path d="M4665 3409 c-174 -25 -379 -145 -569 -334 -188 -187 -257 -332 -251
-527 6 -167 83 -329 209 -436 68 -58 195 -118 280 -133 81 -14 219 -7 289 15
125 39 256 135 324 236 36 55 84 162 111 250 17 58 26 94 47 205 14 72 13 292
-1 370 -48 251 -214 385 -439 354z"/>
<path d="M290 3395 c-129 -34 -216 -127 -265 -285 -22 -72 -28 -288 -10 -396
39 -231 100 -403 182 -514 184 -249 557 -309 815 -132 292 201 347 597 124
877 -158 197 -389 369 -586 435 -76 25 -195 32 -260 15z"/>
<path d="M2418 2845 c-2 -1 -43 -5 -93 -8 -91 -6 -164 -18 -239 -38 -23 -6
-48 -13 -56 -14 -66 -14 -198 -79 -266 -131 -98 -75 -176 -185 -212 -301 -30
-94 -32 -111 -39 -253 -7 -168 -17 -187 -124 -241 -164 -82 -285 -183 -365
-304 -73 -111 -104 -204 -109 -335 -5 -126 18 -224 79 -335 126 -229 392 -396
686 -430 141 -16 251 -6 500 44 128 26 226 35 375 35 164 0 250 -8 396 -38
213 -43 249 -47 353 -47 270 -1 512 91 685 260 112 110 169 208 208 361 2 8 6
53 8 100 5 109 -17 216 -65 310 -80 159 -213 283 -404 376 -109 53 -122 78
-129 244 -5 125 -27 248 -53 298 -8 15 -14 30 -14 34 0 28 -98 150 -169 211
-65 57 -246 139 -351 161 -14 3 -36 7 -50 10 -74 17 -215 28 -372 31 -98 1
-179 1 -180 0z"/>
</g>
</svg>
